#!OML:ASF C:\Vicon Data\Big\jianyuan-13\jianyuan\Session 1\Capture.male.ASF
:FULLY-SPECIFIED
:DEGREES
126
root -7.646296 16.631605 -10.655972 7.596399 0.773127 -0.630410
lowerback -13.421540 3.198456 -1.188132 
upperback 1.883725 4.552152 -0.746735 
thorax 9.540177 2.150899 0.840911 
lowerneck -1.604845 -1.836625 4.429213 
upperneck 12.888707 -3.034849 -2.665111 
head 4.441691 -1.655810 -1.837872 
rclavicle 0.000000 0.000000 
rhumerus -28.070025 -3.577763 -89.744585 
rradius 51.904461 
rwrist 15.746675 
rhand -18.502304 -18.562754 
rfingers 0.000000 
rthumb 7.785570 -48.399428 
lclavicle 0.000000 0.000000 
lhumerus -52.123894 31.673313 59.910777 
lradius 26.670416 
lwrist -55.253525 
lhand -19.043282 0.528569 
lfingers 0.000000 
lthumb 7.263346 30.383857 
rfemur 7.630076 6.789196 24.444431 
rtibia 26.854495 
rfoot -18.955499 3.475219 
rtoes -29.518082 
lfemur -41.164304 -0.128300 -16.484551 
ltibia 25.179142 
lfoot -11.591056 4.212777 
ltoes -25.152094 
127
root -7.621646 16.635251 -10.588630 7.820977 0.756540 -0.624666
lowerback -13.373981 3.201127 -1.181366 
upperback 1.853699 4.560537 -0.813448 
thorax 9.486003 2.159096 0.763648 
lowerneck -1.521953 -1.876597 4.509819 
upperneck 12.739596 -3.077377 -2.687300 
head 4.367939 -1.671471 -1.855449 
rclavicle 0.000000 0.000000 
rhumerus -28.137490 -3.621833 -89.802305 
rradius 51.915008 
rwrist 15.850714 
rhand -18.418049 -18.521506 
rfingers 0.000000 
rthumb 7.866830 -48.355141 
lclavicle 0.000000 0.000000 
lhumerus -52.158544 31.657559 59.840188 
lradius 26.673889 
lwrist -55.242257 
lhand -18.979367 0.521947 
lfingers 0.000000 
lthumb 7.325065 30.375097 
rfemur 7.614050 6.756020 24.295783 
rtibia 26.820933 
rfoot -18.616798 3.564105 
rtoes -29.763018 
lfemur -41.465197 -0.020722 -16.634330 
ltibia 25.382066 
lfoot -10.202343 4.800469 
ltoes -25.261875 
128
root -7.601704 16.637046 -10.519295 7.984383 0.717800 -0.520997
lowerback -13.261363 3.177559 -1.391077 
upperback 1.837627 4.565391 -0.845937 
thorax 9.389587 2.153789 0.839300 
lowerneck -1.439763 -1.911338 4.555531 
upperneck 12.609182 -3.107481 -2.754892 
head 4.301572 -1.685257 -1.882279 
rclavicle 0.000000 0.000000 
rhumerus -28.211109 -3.578937 -89.800877 
rradius 51.879478 
rwrist 15.922050 
rhand -18.382731 -18.410505 
rfingers 0.000000 
rthumb 7.900934 -48.242893 
lclavicle 0.000000 0.000000 
lhumerus -52.260996 31.693236 59.765834 
lradius 26.663688 
lwrist -55.280992 
lhand -18.967124 0.390777 
lfingers 0.000000 
lthumb 7.336889 30.243543 
rfemur 7.644969 6.771962 24.071037 
rtibia 26.852286 
rfoot -18.328723 3.644837 
rtoes -29.791637 
lfemur -41.719441 -0.032092 -16.794818 
ltibia 25.657638 
lfoot -9.082938 5.228532 
ltoes -26.068836 
129
root -7.578759 16.634874 -10.455915 8.294139 0.857549 -0.366026
lowerback -13.255557 3.109646 -1.582704 
upperback 1.788037 4.515054 -0.922705 
thorax 9.324487 2.124378 0.851843 
lowerneck -1.321273 -1.964182 4.574902 
upperneck 12.434470 -3.161404 -2.779273 
head 4.211861 -1.709427 -1.888255 
rclavicle 0.000000 0.000000 
rhumerus -28.286733 -3.511258 -89.822116 
rradius 51.905696 
rwrist 15.931284 
rhand -18.387736 -18.515360 
rfingers 0.000000 
rthumb 7.896114 -48.347846 
lclavicle 0.000000 0.000000 
lhumerus -52.273858 31.635112 59.778083 
lradius 26.649654 
lwrist -55.238264 
lhand -19.165195 0.481315 
lfingers 0.000000 
lthumb 7.145654 30.340715 
rfemur 7.455066 6.723337 23.831737 
rtibia 27.000904 
rfoot -17.993545 3.601727 
rtoes -30.147985 
lfemur -42.148367 -0.084802 -17.098912 
ltibia 25.932514 
lfoot -8.104929 5.423839 
ltoes -27.465855 
130
root -7.556972 16.632236 -10.390110 8.607139 0.976353 -0.238664
lowerback -13.252847 3.045209 -1.771802 
upperback 1.742502 4.466966 -0.980679 
thorax 9.264417 2.095520 0.883933 
lowerneck -1.303568 -2.003825 4.565583 
upperneck 12.331132 -3.203748 -2.787222 
head 4.169034 -1.728457 -1.887396 
rclavicle 0.000000 0.000000 
rhumerus -28.312892 -3.652768 -89.832671 
rradius 51.830333 
rwrist 15.973192 
rhand -18.328966 -18.403659 
rfingers 0.000000 
rthumb 7.952825 -48.234089 
lclavicle 0.000000 0.000000 
lhumerus -52.307214 31.630104 59.799017 
lradius 26.714638 
lwrist -55.024566 
lhand -19.063105 0.405293 
lfingers 0.000000 
lthumb 7.244214 30.261283 
rfemur 7.174097 6.625886 23.586740 
rtibia 27.288758 
rfoot -17.712467 3.645692 
rtoes -30.126207 
lfemur -42.515188 -0.183740 -17.285689 
ltibia 26.153542 
lfoot -7.301470 5.396692 
ltoes -26.877109 
131
root -7.535107 16.630849 -10.324325 8.850979 1.130196 -0.021488
lowerback -13.173961 2.940242 -2.065713 
upperback 1.748680 4.379644 -1.028070 
thorax 9.209505 2.041737 0.975013 
lowerneck -1.332268 -2.020773 4.474092 
upperneck 12.183877 -3.212340 -2.742050 
head 4.122372 -1.730012 -1.852506 
rclavicle 0.000000 0.000000 
rhumerus -28.316829 -3.629607 -89.833304 
rradius 51.784987 
rwrist 16.037001 
rhand -18.394755 -18.362177 
rfingers 0.000000 
rthumb 7.889354 -48.194899 
lclavicle 0.000000 0.000000 
lhumerus -52.265558 31.742000 59.849809 
lradius 26.682290 
lwrist -54.927455 
lhand -19.070983 0.647690 
lfingers 0.000000 
lthumb 7.236639 30.503905 
rfemur 6.918218 6.466624 23.260699 
rtibia 27.709443 
rfoot -17.398415 3.697486 
rtoes -30.209933 
lfemur -42.776369 -0.326538 -17.527060 
ltibia 26.352427 
lfoot -6.408552 5.352344 
ltoes -24.818794 
132
root -7.513504 16.626949 -10.256719 8.992728 1.248190 0.258512
lowerback -13.044215 2.867349 -2.421273 
upperback 1.816161 4.346906 -1.097555 
thorax 9.189005 2.010812 1.087342 
lowerneck -1.472702 -2.070884 4.369163 
upperneck 12.101774 -3.271276 -2.683871 
head 4.119432 -1.755997 -1.817016 
rclavicle 0.000000 0.000000 
rhumerus -28.296849 -3.648531 -89.794821 
rradius 51.703200 
rwrist 16.213555 
rhand -18.414113 -18.273480 
rfingers 0.000000 
rthumb 7.870648 -48.106948 
lclavicle 0.000000 0.000000 
lhumerus -52.189083 31.957716 59.818475 
lradius 26.610923 
lwrist -55.069354 
lhand -19.176855 0.522213 
lfingers 0.000000 
lthumb 7.134455 30.381958 
rfemur 6.768557 6.408121 22.898796 
rtibia 28.178986 
rfoot -17.153789 3.704260 
rtoes -30.047653 
lfemur -42.908177 -0.464329 -17.868206 
ltibia 26.588503 
lfoot -5.504064 5.213141 
ltoes -22.166302 
133
root -7.490926 16.619927 -10.191289 9.183516 1.390638 0.386283
lowerback -12.960011 2.796399 -2.607083 
upperback 1.825072 4.286565 -1.149484 
thorax 9.142814 1.975677 1.118996 
lowerneck -1.423242 -2.108468 4.408380 
upperneck 11.943714 -3.313182 -2.654794 
head 4.051049 -1.770388 -1.810082 
rclavicle 0.000000 0.000000 
rhumerus -28.387833 -3.570200 -89.835186 
rradius 51.760155 
rwrist 16.008632 
rhand -18.489296 -18.378738 
rfingers 0.000000 
rthumb 7.798109 -48.214923 
lclavicle 0.000000 0.000000 
lhumerus -52.190018 32.031998 59.771226 
lradius 26.593635 
lwrist -55.108688 
lhand -19.299265 0.677228 
lfingers 0.000000 
lthumb 7.016308 30.540963 
rfemur 6.538226 6.229821 22.664741 
rtibia 28.660823 
rfoot -16.811883 3.767895 
rtoes -29.953329 
lfemur -43.139932 -0.532176 -18.099529 
ltibia 26.859381 
lfoot -4.567072 5.242139 
ltoes -20.213284 
134
root -7.468196 16.613683 -10.126739 9.387181 1.646993 0.401902
lowerback -12.903783 2.748102 -2.623401 
upperback 1.864102 4.226827 -1.177308 
thorax 9.156006 1.946585 1.084479 
lowerneck -1.464731 -2.186817 4.374079 
upperneck 11.787953 -3.404820 -2.627139 
head 4.000129 -1.810767 -1.794405 
rclavicle 0.000000 0.000000 
rhumerus -28.396342 -3.715903 -89.809292 
rradius 51.711142 
rwrist 15.979831 
rhand -18.529514 -18.401656 
rfingers 0.000000 
rthumb 7.759311 -48.239275 
lclavicle 0.000000 0.000000 
lhumerus -52.061228 32.265891 59.669592 
lradius 26.473345 
lwrist -55.509758 
lhand -19.379872 0.594131 
lfingers 0.000000 
lthumb 6.938479 30.460386 
rfemur 6.277933 5.920767 22.566797 
rtibia 29.149040 
rfoot -16.470809 3.814918 
rtoes -29.976727 
lfemur -43.420373 -0.687000 -18.201718 
ltibia 27.187906 
lfoot -3.626473 5.320464 
ltoes -19.620350 
135
root -7.446886 16.610222 -10.060365 9.512626 1.805103 0.468157
lowerback -12.804322 2.722656 -2.724426 
upperback 1.930875 4.209138 -1.193186 
thorax 9.166309 1.932812 1.116809 
lowerneck -1.458351 -2.254541 4.219308 
upperneck 11.568369 -3.481789 -2.491767 
head 3.920639 -1.843732 -1.717558 
rclavicle 0.000000 0.000000 
rhumerus -28.420246 -3.863801 -89.742425 
rradius 51.701977 
rwrist 15.845644 
rhand -18.564859 -18.439963 
rfingers 0.000000 
rthumb 7.725165 -48.278848 
lclavicle 0.000000 0.000000 
lhumerus -51.944210 32.436505 59.653333 
lradius 26.410217 
lwrist -55.742550 
lhand -19.268596 0.553132 
lfingers 0.000000 
lthumb 7.045860 30.415838 
rfemur 6.109324 5.626943 22.385091 
rtibia 29.601537 
rfoot -16.056400 3.890430 
rtoes -30.113658 
lfemur -43.616732 -0.806362 -18.336115 
ltibia 27.605734 
lfoot -2.886066 5.493187 
ltoes -18.291713 
136
root -7.426588 16.607010 -9.992800 9.656791 2.027265 0.476483
lowerback -12.733911 2.708145 -2.763798 
upperback 1.994411 4.197405 -1.212766 
thorax 9.194346 1.924783 1.113559 
lowerneck -1.555821 -2.347365 4.190506 
upperneck 11.440788 -3.596260 -2.455100 
head 3.890429 -1.894595 -1.702809 
rclavicle 0.000000 0.000000 
rhumerus -28.477605 -4.057901 -89.678880 
rradius 51.699047 
rwrist 15.809324 
rhand -18.578052 -18.473058 
rfingers 0.000000 
rthumb 7.712465 -48.312412 
lclavicle 0.000000 0.000000 
lhumerus -51.646571 32.425720 59.854593 
lradius 26.390809 
lwrist -55.463271 
lhand -19.011472 0.664401 
lfingers 0.000000 
lthumb 7.294076 30.518632 
rfemur 5.923448 5.357287 22.310991 
rtibia 30.059837 
rfoot -15.562775 3.895722 
rtoes -30.223819 
lfemur -43.870473 -0.946805 -18.418956 
ltibia 28.086745 
lfoot -2.336983 5.661212 
ltoes -18.115853 
